<svg id="Layer_1" data-name="Layer 1" xmlns="http://www.w3.org/2000/svg" viewBox="0 0 198.136 45.154">
  <defs>
    <style>
      .cls-1 {
        fill: #00587e;
      }

      .cls-2 {
        fill: #b21f29;
      }
    </style>
  </defs>
  <title>6062-DEL-Branding-Logo-Nov2016-FINAL</title>
  <path id="_Path_" data-name="&lt;Path&gt;" class="cls-1" d="M18.223,11.6,16.31,14.268l1.138.012L17.2,36.512a5.25,5.25,0,1,1-6.028-5.062,5.293,5.293,0,0,1,4.3,1.3l.015-2.042a6.917,6.917,0,1,0-2.491,12.788c3.694-.553,5.813-3,5.829-7.621.037-4.61-.015-9.612,0-21.163l1.3.076Z" transform="translate(-1 -2.414)"/>
  <path id="_Path_2" data-name="&lt;Path&gt;" class="cls-2" d="M21.926,2.414,19.015,6.791l1.829-.045s-.084,4.784-.193,10.842c-.119,6.8-.246,14.851-.272,18.384-.558,6.276-2.572,8-6.782,8.8a8.39,8.39,0,1,1-3.131-16.486,8.1,8.1,0,0,1,4.883.566l-.128-2.88a10.909,10.909,0,0,0-5.256-.294,11.043,11.043,0,0,0,4.134,21.7c7.569-1.433,8.717-7.535,8.84-12.512.051-2.353.147-4.375.209-8.246.055-3.3.068-7.667-.012-15.019-.012-1.331-.044-2.745-.062-4.262l2.058.049Z" transform="translate(-1 -2.414)"/>
  <g id="_Group_" data-name="&lt;Group&gt;">
    <path class="cls-2" d="M33.785,34.982h3.594v.694h-2.76v1.7H37.3v.693h-2.68v2.3h2.76v.693H33.785Z" transform="translate(-1 -2.414)"/>
    <path class="cls-2" d="M40.724,41.065h-.8v-7h.8Z" transform="translate(-1 -2.414)"/>
    <path class="cls-2" d="M43.919,39.3a1.27,1.27,0,0,0,.089.468,1.227,1.227,0,0,0,.253.4,1.255,1.255,0,0,0,.4.278,1.223,1.223,0,0,0,.515.1,1.237,1.237,0,0,0,.736-.2,2.117,2.117,0,0,0,.506-.536l.674.347a2.009,2.009,0,0,1-.8.762,2.356,2.356,0,0,1-1.123.271,2.251,2.251,0,0,1-.856-.153,1.812,1.812,0,0,1-1.043-1.049,2.128,2.128,0,0,1-.142-.782,2.443,2.443,0,0,1,.128-.807,1.818,1.818,0,0,1,.382-.646,1.732,1.732,0,0,1,.63-.428,2.348,2.348,0,0,1,.883-.153,2.164,2.164,0,0,1,.861.157,1.7,1.7,0,0,1,.6.428,1.787,1.787,0,0,1,.359.638,2.525,2.525,0,0,1,.12.786V39.3Zm2.37-.549a1.119,1.119,0,0,0-.369-.686,1.143,1.143,0,0,0-.776-.258,1.19,1.19,0,0,0-.79.266,1.1,1.1,0,0,0-.391.678Z" transform="translate(-1 -2.414)"/>
    <path class="cls-2" d="M52.4,38.363a1.588,1.588,0,0,0-1.189-.509,1.352,1.352,0,0,0-.545.109,1.423,1.423,0,0,0-.439.29,1.35,1.35,0,0,0-.293.424,1.232,1.232,0,0,0-.106.5,1.339,1.339,0,0,0,.106.536,1.249,1.249,0,0,0,.3.424,1.39,1.39,0,0,0,.453.278,1.6,1.6,0,0,0,.581.1,1.436,1.436,0,0,0,.626-.133,1.812,1.812,0,0,0,.51-.367v.928a2.2,2.2,0,0,1-.555.193,2.947,2.947,0,0,1-.59.057,2.473,2.473,0,0,1-.865-.149,2.2,2.2,0,0,1-.706-.415A2.013,2.013,0,0,1,49.208,40a1.773,1.773,0,0,1-.177-.791,1.921,1.921,0,0,1,.652-1.456,2.256,2.256,0,0,1,.723-.424,2.6,2.6,0,0,1,.9-.153,2.8,2.8,0,0,1,.572.061,1.984,1.984,0,0,1,.528.189Z" transform="translate(-1 -2.414)"/>
    <path class="cls-2" d="M55.748,41.065h-.8v-3.1h-.435V37.29h.435V35.846h.8V37.29h.781v.678h-.781Z" transform="translate(-1 -2.414)"/>
    <path class="cls-2" d="M59.395,37.9h.027a1.245,1.245,0,0,1,1.478-.678,1.424,1.424,0,0,1,.315.137l-.364.662a.588.588,0,0,0-.226-.121,1.01,1.01,0,0,0-.262-.032.937.937,0,0,0-.515.125.8.8,0,0,0-.292.318,1.324,1.324,0,0,0-.129.432,3.542,3.542,0,0,0-.031.464v1.855h-.8V37.29h.8Z" transform="translate(-1 -2.414)"/>
    <path class="cls-2" d="M63.805,35.056a.554.554,0,0,1,.391.148.475.475,0,0,1,.16.359.449.449,0,0,1-.16.351.61.61,0,0,1-.781,0,.449.449,0,0,1-.16-.351.475.475,0,0,1,.16-.359A.555.555,0,0,1,63.805,35.056Zm.4,6.01h-.8V37.29h.8Z" transform="translate(-1 -2.414)"/>
    <path class="cls-2" d="M70.115,38.363a1.588,1.588,0,0,0-1.189-.509,1.352,1.352,0,0,0-.545.109,1.423,1.423,0,0,0-.439.29,1.35,1.35,0,0,0-.293.424,1.232,1.232,0,0,0-.106.5,1.339,1.339,0,0,0,.106.536,1.249,1.249,0,0,0,.3.424,1.39,1.39,0,0,0,.453.278,1.6,1.6,0,0,0,.581.1,1.436,1.436,0,0,0,.626-.133,1.812,1.812,0,0,0,.51-.367v.928a2.2,2.2,0,0,1-.555.193,2.947,2.947,0,0,1-.59.057,2.473,2.473,0,0,1-.865-.149,2.2,2.2,0,0,1-.706-.415A2.013,2.013,0,0,1,66.92,40a1.773,1.773,0,0,1-.177-.791,1.921,1.921,0,0,1,.652-1.456,2.256,2.256,0,0,1,.723-.424,2.6,2.6,0,0,1,.9-.153,2.8,2.8,0,0,1,.572.061,1.984,1.984,0,0,1,.528.189Z" transform="translate(-1 -2.414)"/>
    <path class="cls-2" d="M76.441,41.065h-.8v-.589h-.018a1.844,1.844,0,0,1-.6.521,1.655,1.655,0,0,1-.812.2,2.046,2.046,0,0,1-.847-.165,1.822,1.822,0,0,1-.621-.448,1.943,1.943,0,0,1-.386-.653,2.269,2.269,0,0,1-.133-.774,2.066,2.066,0,0,1,.137-.746,1.881,1.881,0,0,1,1.007-1.064,1.95,1.95,0,0,1,.816-.166,1.67,1.67,0,0,1,.825.2,1.887,1.887,0,0,1,.612.54h.018V37.29h.8Zm-2.1-.517a1.431,1.431,0,0,0,.577-.108,1.234,1.234,0,0,0,.421-.3,1.284,1.284,0,0,0,.262-.436,1.546,1.546,0,0,0,.088-.528,1.526,1.526,0,0,0-.088-.521,1.224,1.224,0,0,0-.688-.726,1.422,1.422,0,0,0-.572-.109,1.308,1.308,0,0,0-.555.113,1.234,1.234,0,0,0-.413.3,1.323,1.323,0,0,0-.257.432,1.462,1.462,0,0,0-.089.508,1.5,1.5,0,0,0,.089.513,1.413,1.413,0,0,0,.253.439,1.169,1.169,0,0,0,.408.307A1.33,1.33,0,0,0,74.338,40.549Z" transform="translate(-1 -2.414)"/>
    <path class="cls-2" d="M79.885,41.065h-.8v-7h.8Z" transform="translate(-1 -2.414)"/>
  </g>
  <g id="_Group_2" data-name="&lt;Group&gt;">
    <path class="cls-2" d="M86.548,34.507l-3.266,7.865-.861-.282,3.266-7.865Z" transform="translate(-1 -2.414)"/>
  </g>
  <g id="_Group_3" data-name="&lt;Group&gt;">
    <path class="cls-2" d="M90.231,37.048h-.018l-.781,4.018h-.861l1.367-6.341,2.3,4.792,2.3-4.792L95.9,41.065h-.861l-.781-4.018h-.018l-2.005,4.146Z" transform="translate(-1 -2.414)"/>
    <path class="cls-2" d="M98.617,39.3a1.27,1.27,0,0,0,.089.468,1.227,1.227,0,0,0,.253.4,1.255,1.255,0,0,0,.4.278,1.223,1.223,0,0,0,.515.1,1.237,1.237,0,0,0,.736-.2,2.136,2.136,0,0,0,.506-.536l.674.347a2.007,2.007,0,0,1-.8.762,2.352,2.352,0,0,1-1.122.271A2.251,2.251,0,0,1,99,41.041a1.812,1.812,0,0,1-1.043-1.049,2.128,2.128,0,0,1-.142-.782,2.443,2.443,0,0,1,.128-.807,1.818,1.818,0,0,1,.382-.646,1.732,1.732,0,0,1,.63-.428,2.348,2.348,0,0,1,.883-.153,2.163,2.163,0,0,1,.861.157,1.71,1.71,0,0,1,.6.428,1.78,1.78,0,0,1,.359.638,2.51,2.51,0,0,1,.119.786V39.3Zm2.369-.549a1.118,1.118,0,0,0-.367-.686,1.145,1.145,0,0,0-.777-.258,1.19,1.19,0,0,0-.79.266,1.1,1.1,0,0,0-.391.678Z" transform="translate(-1 -2.414)"/>
    <path class="cls-2" d="M107.1,38.363a1.586,1.586,0,0,0-1.188-.509,1.353,1.353,0,0,0-.546.109,1.423,1.423,0,0,0-.439.29,1.35,1.35,0,0,0-.293.424,1.224,1.224,0,0,0-.106.5,1.33,1.33,0,0,0,.106.536,1.243,1.243,0,0,0,.3.424,1.387,1.387,0,0,0,.452.278,1.6,1.6,0,0,0,.581.1,1.438,1.438,0,0,0,.626-.133,1.789,1.789,0,0,0,.51-.367v.928a2.2,2.2,0,0,1-.555.193,2.935,2.935,0,0,1-.59.057,2.475,2.475,0,0,1-.865-.149,2.188,2.188,0,0,1-.705-.415,2.015,2.015,0,0,1-.479-.629,1.78,1.78,0,0,1-.178-.791,1.914,1.914,0,0,1,.173-.811,1.937,1.937,0,0,1,.479-.646,2.253,2.253,0,0,1,.724-.424,2.587,2.587,0,0,1,.9-.153,2.808,2.808,0,0,1,.572.061,1.978,1.978,0,0,1,.527.189Z" transform="translate(-1 -2.414)"/>
    <path class="cls-2" d="M110.331,34.063V37.8h.018a1.189,1.189,0,0,1,.528-.464,1.714,1.714,0,0,1,.724-.157,1.831,1.831,0,0,1,.723.125,1.087,1.087,0,0,1,.453.348,1.368,1.368,0,0,1,.23.52,2.991,2.991,0,0,1,.066.646v2.251h-.8V38.9a3.343,3.343,0,0,0-.026-.439.8.8,0,0,0-.124-.343.613.613,0,0,0-.279-.222,1.259,1.259,0,0,0-.484-.077,1.059,1.059,0,0,0-.6.142.821.821,0,0,0-.3.358,1.461,1.461,0,0,0-.111.484q-.018.267-.018.524v1.734h-.8v-7Z" transform="translate(-1 -2.414)"/>
    <path class="cls-2" d="M119.649,41.065h-.8v-.589h-.018a1.846,1.846,0,0,1-.6.521,1.653,1.653,0,0,1-.812.2,2.048,2.048,0,0,1-.848-.165,1.813,1.813,0,0,1-.621-.448,1.926,1.926,0,0,1-.386-.653,2.27,2.27,0,0,1-.134-.774,2.067,2.067,0,0,1,.138-.746,1.9,1.9,0,0,1,.391-.629,1.922,1.922,0,0,1,.616-.436,1.955,1.955,0,0,1,.816-.166,1.675,1.675,0,0,1,.826.2,1.9,1.9,0,0,1,.612.54h.018V37.29h.8Zm-2.1-.517a1.435,1.435,0,0,0,.577-.108,1.236,1.236,0,0,0,.421-.3,1.275,1.275,0,0,0,.262-.436,1.535,1.535,0,0,0,.089-.528,1.514,1.514,0,0,0-.089-.521,1.222,1.222,0,0,0-.687-.726,1.424,1.424,0,0,0-.572-.109,1.309,1.309,0,0,0-.555.113,1.231,1.231,0,0,0-.413.3,1.313,1.313,0,0,0-.257.432,1.451,1.451,0,0,0-.089.508,1.49,1.49,0,0,0,.089.513,1.4,1.4,0,0,0,.253.439,1.169,1.169,0,0,0,.408.307A1.328,1.328,0,0,0,117.546,40.549Z" transform="translate(-1 -2.414)"/>
    <path class="cls-2" d="M123.057,37.8h.018a1.189,1.189,0,0,1,.528-.464,1.714,1.714,0,0,1,.724-.157,1.831,1.831,0,0,1,.723.125,1.087,1.087,0,0,1,.453.348,1.368,1.368,0,0,1,.23.52,2.991,2.991,0,0,1,.066.646v2.251H125V38.9a3.343,3.343,0,0,0-.026-.439.8.8,0,0,0-.124-.343.613.613,0,0,0-.279-.222,1.259,1.259,0,0,0-.484-.077,1.059,1.059,0,0,0-.6.142.821.821,0,0,0-.3.358,1.461,1.461,0,0,0-.111.484q-.018.267-.018.524v1.734h-.8V37.29h.8Z" transform="translate(-1 -2.414)"/>
    <path class="cls-2" d="M129.046,35.056a.553.553,0,0,1,.391.148.475.475,0,0,1,.159.359.448.448,0,0,1-.159.351.61.61,0,0,1-.781,0,.448.448,0,0,1-.159-.351.475.475,0,0,1,.159-.359A.553.553,0,0,1,129.046,35.056Zm.4,6.01h-.8V37.29h.8Z" transform="translate(-1 -2.414)"/>
    <path class="cls-2" d="M135.355,38.363a1.586,1.586,0,0,0-1.188-.509,1.353,1.353,0,0,0-.546.109,1.423,1.423,0,0,0-.439.29,1.35,1.35,0,0,0-.293.424,1.224,1.224,0,0,0-.106.5,1.33,1.33,0,0,0,.106.536,1.243,1.243,0,0,0,.3.424,1.387,1.387,0,0,0,.452.278,1.6,1.6,0,0,0,.581.1,1.438,1.438,0,0,0,.626-.133,1.789,1.789,0,0,0,.51-.367v.928a2.2,2.2,0,0,1-.555.193,2.935,2.935,0,0,1-.59.057,2.475,2.475,0,0,1-.865-.149,2.188,2.188,0,0,1-.705-.415,2.015,2.015,0,0,1-.479-.629,1.78,1.78,0,0,1-.178-.791,1.914,1.914,0,0,1,.173-.811,1.937,1.937,0,0,1,.479-.646,2.253,2.253,0,0,1,.724-.424,2.587,2.587,0,0,1,.9-.153,2.808,2.808,0,0,1,.572.061,1.978,1.978,0,0,1,.527.189Z" transform="translate(-1 -2.414)"/>
    <path class="cls-2" d="M141.684,41.065h-.8v-.589h-.018a1.846,1.846,0,0,1-.6.521,1.653,1.653,0,0,1-.812.2,2.048,2.048,0,0,1-.848-.165,1.813,1.813,0,0,1-.621-.448,1.926,1.926,0,0,1-.386-.653,2.27,2.27,0,0,1-.134-.774,2.067,2.067,0,0,1,.138-.746,1.9,1.9,0,0,1,.391-.629,1.922,1.922,0,0,1,.616-.436,1.955,1.955,0,0,1,.816-.166,1.675,1.675,0,0,1,.826.2,1.9,1.9,0,0,1,.612.54h.018V37.29h.8Zm-2.1-.517a1.435,1.435,0,0,0,.577-.108,1.236,1.236,0,0,0,.421-.3,1.275,1.275,0,0,0,.262-.436,1.535,1.535,0,0,0,.089-.528,1.514,1.514,0,0,0-.089-.521,1.222,1.222,0,0,0-.687-.726,1.424,1.424,0,0,0-.572-.109,1.309,1.309,0,0,0-.555.113,1.231,1.231,0,0,0-.413.3,1.313,1.313,0,0,0-.257.432,1.451,1.451,0,0,0-.089.508,1.49,1.49,0,0,0,.089.513,1.4,1.4,0,0,0,.253.439,1.169,1.169,0,0,0,.408.307A1.328,1.328,0,0,0,139.58,40.549Z" transform="translate(-1 -2.414)"/>
    <path class="cls-2" d="M145.126,41.065h-.8v-7h.8Z" transform="translate(-1 -2.414)"/>
    <path class="cls-2" d="M155.046,36.137a1.314,1.314,0,0,0-.438-.428,1.264,1.264,0,0,0-.635-.146,1.4,1.4,0,0,0-.4.061,1.239,1.239,0,0,0-.359.174.922.922,0,0,0-.257.27.666.666,0,0,0-.1.359.561.561,0,0,0,.089.314.982.982,0,0,0,.222.242,1.48,1.48,0,0,0,.3.182c.109.051.218.1.324.133l.479.17a5.8,5.8,0,0,1,.661.286,2.118,2.118,0,0,1,.527.375,1.586,1.586,0,0,1,.347.5,1.661,1.661,0,0,1,.124.666,1.778,1.778,0,0,1-.617,1.363,2.122,2.122,0,0,1-.679.392,2.466,2.466,0,0,1-.843.141,2.214,2.214,0,0,1-.763-.129,2.069,2.069,0,0,1-.626-.354,1.959,1.959,0,0,1-.679-1.219l.843-.161a1.1,1.1,0,0,0,.1.464,1.061,1.061,0,0,0,.275.367,1.276,1.276,0,0,0,.417.237,1.5,1.5,0,0,0,.506.085,1.253,1.253,0,0,0,.883-.354,1.171,1.171,0,0,0,.257-.375,1.125,1.125,0,0,0,.094-.456.89.89,0,0,0-.1-.424,1.036,1.036,0,0,0-.262-.314,1.921,1.921,0,0,0-.373-.234q-.208-.1-.421-.181l-.462-.178q-.284-.113-.55-.246a2.039,2.039,0,0,1-.466-.314,1.417,1.417,0,0,1-.32-.424,1.248,1.248,0,0,1-.119-.557,1.32,1.32,0,0,1,.164-.661,1.535,1.535,0,0,1,.439-.492,2.063,2.063,0,0,1,.63-.311,2.476,2.476,0,0,1,.736-.109,2.082,2.082,0,0,1,1,.238,1.879,1.879,0,0,1,.719.682Z" transform="translate(-1 -2.414)"/>
    <path class="cls-2" d="M158.809,39.3a1.26,1.26,0,0,0,.089.468,1.219,1.219,0,0,0,.253.4,1.264,1.264,0,0,0,.395.278,1.224,1.224,0,0,0,.515.1,1.24,1.24,0,0,0,.737-.2,2.143,2.143,0,0,0,.506-.536l.674.347a2.009,2.009,0,0,1-.8.762,2.359,2.359,0,0,1-1.123.271,2.254,2.254,0,0,1-.856-.153,1.877,1.877,0,0,1-.639-.419,1.829,1.829,0,0,1-.4-.63,2.129,2.129,0,0,1-.143-.782,2.443,2.443,0,0,1,.129-.807,1.818,1.818,0,0,1,.382-.646,1.724,1.724,0,0,1,.63-.428,2.346,2.346,0,0,1,.883-.153,2.17,2.17,0,0,1,.861.157,1.7,1.7,0,0,1,.6.428,1.765,1.765,0,0,1,.359.638,2.51,2.51,0,0,1,.12.786V39.3Zm2.369-.549a1.114,1.114,0,0,0-.368-.686,1.143,1.143,0,0,0-.776-.258,1.191,1.191,0,0,0-.79.266,1.1,1.1,0,0,0-.39.678Z" transform="translate(-1 -2.414)"/>
    <path class="cls-2" d="M165.092,37.9h.026a1.207,1.207,0,0,1,.443-.532,1.222,1.222,0,0,1,.692-.194,1.2,1.2,0,0,1,.342.049,1.448,1.448,0,0,1,.315.137l-.364.662a.59.59,0,0,0-.227-.121,1.006,1.006,0,0,0-.262-.032.936.936,0,0,0-.515.125.809.809,0,0,0-.293.318,1.347,1.347,0,0,0-.128.432,3.459,3.459,0,0,0-.031.464v1.855h-.8V37.29h.8Z" transform="translate(-1 -2.414)"/>
    <path class="cls-2" d="M170.709,39.646l1.2-2.355h.9l-2.095,3.9-2.085-3.9h.9Z" transform="translate(-1 -2.414)"/>
    <path class="cls-2" d="M175.395,35.056a.553.553,0,0,1,.391.148.475.475,0,0,1,.159.359.448.448,0,0,1-.159.351.61.61,0,0,1-.781,0,.448.448,0,0,1-.159-.351A.475.475,0,0,1,175,35.2.553.553,0,0,1,175.395,35.056Zm.4,6.01H175V37.29h.8Z" transform="translate(-1 -2.414)"/>
    <path class="cls-2" d="M181.694,38.363a1.586,1.586,0,0,0-1.188-.509,1.353,1.353,0,0,0-.546.109,1.423,1.423,0,0,0-.439.29,1.35,1.35,0,0,0-.293.424,1.224,1.224,0,0,0-.106.5,1.33,1.33,0,0,0,.106.536,1.243,1.243,0,0,0,.3.424,1.387,1.387,0,0,0,.452.278,1.6,1.6,0,0,0,.581.1,1.438,1.438,0,0,0,.626-.133,1.789,1.789,0,0,0,.51-.367v.928a2.2,2.2,0,0,1-.555.193,2.935,2.935,0,0,1-.59.057,2.475,2.475,0,0,1-.865-.149,2.188,2.188,0,0,1-.705-.415A2.015,2.015,0,0,1,178.5,40a1.78,1.78,0,0,1-.178-.791,1.914,1.914,0,0,1,.173-.811,1.937,1.937,0,0,1,.479-.646,2.253,2.253,0,0,1,.724-.424,2.587,2.587,0,0,1,.9-.153,2.808,2.808,0,0,1,.572.061,1.978,1.978,0,0,1,.527.189Z" transform="translate(-1 -2.414)"/>
    <path class="cls-2" d="M184.614,39.3a1.26,1.26,0,0,0,.089.468,1.219,1.219,0,0,0,.253.4,1.264,1.264,0,0,0,.395.278,1.224,1.224,0,0,0,.515.1,1.24,1.24,0,0,0,.737-.2,2.143,2.143,0,0,0,.506-.536l.674.347a2.009,2.009,0,0,1-.8.762,2.359,2.359,0,0,1-1.123.271,2.254,2.254,0,0,1-.856-.153,1.877,1.877,0,0,1-.639-.419,1.829,1.829,0,0,1-.4-.63,2.129,2.129,0,0,1-.143-.782,2.443,2.443,0,0,1,.129-.807,1.818,1.818,0,0,1,.382-.646,1.724,1.724,0,0,1,.63-.428,2.346,2.346,0,0,1,.883-.153,2.17,2.17,0,0,1,.861.157,1.7,1.7,0,0,1,.6.428,1.765,1.765,0,0,1,.359.638,2.51,2.51,0,0,1,.12.786V39.3Zm2.369-.549a1.114,1.114,0,0,0-.368-.686,1.143,1.143,0,0,0-.776-.258,1.191,1.191,0,0,0-.79.266,1.1,1.1,0,0,0-.39.678Z" transform="translate(-1 -2.414)"/>
    <path class="cls-2" d="M191.714,38.153a.648.648,0,0,0-.213-.234.555.555,0,0,0-.319-.1.47.47,0,0,0-.3.105.324.324,0,0,0-.134.266.306.306,0,0,0,.085.214.96.96,0,0,0,.217.174,1.994,1.994,0,0,0,.307.148l.359.142a3.431,3.431,0,0,1,.359.165,1.389,1.389,0,0,1,.306.223,1.016,1.016,0,0,1,.213.294.887.887,0,0,1,.08.392,1.09,1.09,0,0,1-.115.5,1.3,1.3,0,0,1-.311.4,1.422,1.422,0,0,1-.452.262,1.622,1.622,0,0,1-.551.093,1.763,1.763,0,0,1-.448-.057,1.732,1.732,0,0,1-.412-.165,1.432,1.432,0,0,1-.347-.267,1.1,1.1,0,0,1-.23-.358l.684-.282a1.259,1.259,0,0,0,.3.347.712.712,0,0,0,.457.137.7.7,0,0,0,.443-.145.466.466,0,0,0,.187-.388.35.35,0,0,0-.075-.238,1,1,0,0,0-.218-.173l-.78-.379a3.036,3.036,0,0,1-.324-.17,1.274,1.274,0,0,1-.253-.2.771.771,0,0,1-.164-.25.894.894,0,0,1-.058-.335.967.967,0,0,1,.1-.428,1.145,1.145,0,0,1,.262-.351,1.212,1.212,0,0,1,.386-.234,1.331,1.331,0,0,1,.479-.085,1.252,1.252,0,0,1,1.136.662Z" transform="translate(-1 -2.414)"/>
  </g>
  <g id="_Group_4" data-name="&lt;Group&gt;">
    <path class="cls-1" d="M33.849,13.389a23.509,23.509,0,0,1,4.047-.351c2.877,0,5.053.772,6.363,2.152a7.515,7.515,0,0,1,1.965,5.474,8.626,8.626,0,0,1-2.059,5.965c-1.38,1.521-3.766,2.409-6.807,2.409-1.216,0-2.362-.023-3.509-.117Zm1.123,14.6a19.383,19.383,0,0,0,2.55.117c5.052,0,7.555-2.831,7.555-7.392.047-4-2.175-6.737-7.251-6.737a14.289,14.289,0,0,0-2.854.257Z" transform="translate(-1 -2.414)"/>
    <path class="cls-1" d="M55.979,26.254a16.8,16.8,0,0,0,.164,2.667H55.114l-.164-1.614H54.9a4.292,4.292,0,0,1-3.6,1.871A3.05,3.05,0,0,1,48,26.091c0-2.6,2.269-4.164,6.854-4.117v-.3c0-1.1-.21-3.322-2.877-3.3a4.9,4.9,0,0,0-2.83.842l-.351-.819a6.209,6.209,0,0,1,3.3-.959c3.251,0,3.883,2.433,3.883,4.421Zm-1.123-3.345c-2.456-.07-5.684.3-5.684,2.994a2.146,2.146,0,0,0,2.246,2.339A3.357,3.357,0,0,0,54.74,26a1.881,1.881,0,0,0,.117-.679Z" transform="translate(-1 -2.414)"/>
    <path class="cls-1" d="M61.15,15.213v2.479h3.2V18.6h-3.2v7.3c0,1.427.444,2.315,1.638,2.315a4.18,4.18,0,0,0,1.287-.163l.14.842a4.432,4.432,0,0,1-1.567.258,2.385,2.385,0,0,1-1.918-.772,4.1,4.1,0,0,1-.7-2.69V18.6h-1.9v-.912h1.9V15.634Z" transform="translate(-1 -2.414)"/>
    <path class="cls-1" d="M73.83,26.254a16.8,16.8,0,0,0,.164,2.667H72.964L72.8,27.307h-.046a4.292,4.292,0,0,1-3.6,1.871,3.05,3.05,0,0,1-3.3-3.087c0-2.6,2.269-4.164,6.854-4.117v-.3c0-1.1-.21-3.322-2.877-3.3a4.9,4.9,0,0,0-2.83.842l-.351-.819a6.209,6.209,0,0,1,3.3-.959c3.251,0,3.883,2.433,3.883,4.421Zm-1.123-3.345c-2.456-.07-5.684.3-5.684,2.994a2.146,2.146,0,0,0,2.246,2.339A3.357,3.357,0,0,0,72.59,26a1.881,1.881,0,0,0,.117-.679Z" transform="translate(-1 -2.414)"/>
  </g>
  <g id="_Group_5" data-name="&lt;Group&gt;">
    <path class="cls-1" d="M85.5,21.529H79.375v5.684h6.83v1.708H77.34V13.155h8.515v1.708H79.375v4.982H85.5Z" transform="translate(-1 -2.414)"/>
    <path class="cls-1" d="M88.78,20.664c0-1.169-.023-2.128-.093-3.064h1.824l.117,1.872h.047a4.162,4.162,0,0,1,3.743-2.129c1.567,0,4,.936,4,4.819v6.76H96.359V22.395c0-1.825-.679-3.345-2.62-3.345a2.925,2.925,0,0,0-2.76,2.105,2.963,2.963,0,0,0-.14.959v6.807H88.78Z" transform="translate(-1 -2.414)"/>
    <path class="cls-1" d="M111.519,17.6c-.047.819-.094,1.731-.094,3.111v6.573c0,2.6-.515,4.188-1.614,5.17a6,6,0,0,1-4.116,1.356,7.3,7.3,0,0,1-3.767-.936l.515-1.567a6.386,6.386,0,0,0,3.322.889c2.1,0,3.648-1.1,3.648-3.953V26.979h-.047a4.04,4.04,0,0,1-3.6,1.895c-2.808,0-4.82-2.386-4.82-5.521,0-3.836,2.5-6.012,5.1-6.012a3.765,3.765,0,0,1,3.532,1.965h.047l.094-1.708Zm-2.129,4.468a3.01,3.01,0,0,0-2.994-3.111c-1.965,0-3.368,1.661-3.368,4.28,0,2.223,1.123,4.07,3.345,4.07a3.009,3.009,0,0,0,2.854-2.105,3.6,3.6,0,0,0,.163-1.1Z" transform="translate(-1 -2.414)"/>
    <path class="cls-1" d="M116.994,14.418a1.275,1.275,0,0,1-2.55,0,1.255,1.255,0,0,1,1.287-1.287A1.222,1.222,0,0,1,116.994,14.418Zm-2.292,14.5V17.6h2.058V28.921Z" transform="translate(-1 -2.414)"/>
    <path class="cls-1" d="M120.176,20.664c0-1.169-.023-2.128-.094-3.064h1.824l.117,1.872h.047a4.163,4.163,0,0,1,3.742-2.129c1.567,0,4,.936,4,4.819v6.76h-2.059V22.395c0-1.825-.678-3.345-2.619-3.345a3.02,3.02,0,0,0-2.9,3.064v6.807h-2.058Z" transform="translate(-1 -2.414)"/>
    <path class="cls-1" d="M134.306,23.635a3.628,3.628,0,0,0,3.884,3.93,7.444,7.444,0,0,0,3.134-.585l.352,1.474a9.181,9.181,0,0,1-3.767.7c-3.485,0-5.567-2.293-5.567-5.708s2.012-6.105,5.311-6.105c3.7,0,4.678,3.251,4.678,5.334a7.757,7.757,0,0,1-.07.959Zm6.035-1.474c.023-1.311-.538-3.346-2.854-3.346-2.082,0-2.994,1.918-3.158,3.346Z" transform="translate(-1 -2.414)"/>
    <path class="cls-1" d="M146.026,23.635a3.628,3.628,0,0,0,3.884,3.93,7.444,7.444,0,0,0,3.134-.585l.352,1.474a9.181,9.181,0,0,1-3.767.7c-3.485,0-5.567-2.293-5.567-5.708s2.012-6.105,5.311-6.105c3.7,0,4.678,3.251,4.678,5.334a7.757,7.757,0,0,1-.07.959Zm6.035-1.474c.023-1.311-.538-3.346-2.854-3.346-2.082,0-2.994,1.918-3.158,3.346Z" transform="translate(-1 -2.414)"/>
    <path class="cls-1" d="M156.6,21.132c0-1.333-.023-2.48-.094-3.533h1.8l.07,2.222h.094a3.4,3.4,0,0,1,3.135-2.479,2.216,2.216,0,0,1,.584.07v1.941a3.11,3.11,0,0,0-.7-.07,2.888,2.888,0,0,0-2.761,2.643,5.786,5.786,0,0,0-.093.959v6.035H156.6Z" transform="translate(-1 -2.414)"/>
    <path class="cls-1" d="M166.613,14.418a1.275,1.275,0,0,1-2.55,0,1.255,1.255,0,0,1,1.287-1.287A1.222,1.222,0,0,1,166.613,14.418Zm-2.292,14.5V17.6h2.058V28.921Z" transform="translate(-1 -2.414)"/>
    <path class="cls-1" d="M169.8,20.664c0-1.169-.023-2.128-.094-3.064h1.824l.117,1.872h.047a4.163,4.163,0,0,1,3.742-2.129c1.567,0,4,.936,4,4.819v6.76h-2.059V22.395c0-1.825-.678-3.345-2.619-3.345a3.02,3.02,0,0,0-2.9,3.064v6.807H169.8Z" transform="translate(-1 -2.414)"/>
    <path class="cls-1" d="M192.534,17.6c-.047.819-.094,1.731-.094,3.111v6.573c0,2.6-.515,4.188-1.614,5.17a6,6,0,0,1-4.116,1.356,7.3,7.3,0,0,1-3.767-.936l.515-1.567a6.386,6.386,0,0,0,3.322.889c2.1,0,3.648-1.1,3.648-3.953V26.979h-.047a4.04,4.04,0,0,1-3.6,1.895c-2.808,0-4.819-2.386-4.819-5.521,0-3.836,2.5-6.012,5.1-6.012a3.765,3.765,0,0,1,3.532,1.965h.047l.094-1.708Zm-2.129,4.468a3.01,3.01,0,0,0-2.994-3.111c-1.965,0-3.368,1.661-3.368,4.28,0,2.223,1.123,4.07,3.345,4.07a3.009,3.009,0,0,0,2.854-2.105,3.6,3.6,0,0,0,.163-1.1Z" transform="translate(-1 -2.414)"/>
  </g>
</svg>
